<svg width="42" height="42" viewBox="0 0 42 42" fill="none" xmlns="http://www.w3.org/2000/svg">
<path d="M28.4033 35.9801C21.695 35.9801 12.103 35.9801 7.99322 35.9801C6.88865 35.9801 6 35.0847 6 33.9801V8C6 6.89543 6.89543 6 8 6H20.4292M28.4033 35.9801C24.1148 36.3034 20.3193 32.6444 20.4292 28.2929C20.5366 24.0434 24.2154 20.6743 28.4033 20.99M28.4033 35.9801C32.5961 36.0889 36.1051 32.537 35.9976 28.2929C35.8927 24.1535 32.4926 20.8839 28.4033 20.99M28.4033 14.0716L20.4292 6M28.4033 14.0716H22.4292C21.3247 14.0716 20.4292 13.1761 20.4292 12.0716V6M28.4033 14.0716C28.4033 14.0716 28.4033 18.2882 28.4033 20.99M25.7453 28.6772H31.0613M28.4033 25.7928C28.4033 27.7008 28.4033 29.4488 28.4033 31.3678" stroke="white" stroke-width="1.5" stroke-linecap="round" stroke-linejoin="round"/>
</svg>
