<svg width="42" height="42" viewBox="0 0 42 42" fill="none" xmlns="http://www.w3.org/2000/svg">
<path d="M9.45545 18.9509H7.15842C7.07093 18.9509 7 19.0228 7 19.1116V25.9821C7 26.0709 7.07093 26.1429 7.15842 26.1429H10.8812M9.45545 18.9509V16.2589C9.45545 16.1702 9.52637 16.0982 9.61386 16.0982H32.4653C32.5528 16.0982 32.6238 16.1702 32.6238 16.2589V18.9509M9.45545 18.9509H32.6238M32.6238 18.9509H34.8416C34.9291 18.9509 35 19.0228 35 19.1116V25.9821C35 26.0709 34.9291 26.1429 34.8416 26.1429H31.198M10.8812 26.1429V38.8393C10.8812 38.928 10.9521 39 11.0396 39H31.0396C31.1271 39 31.198 38.928 31.198 38.8393V26.1429M10.8812 26.1429H31.198M10.6436 3V14.7321M13.2574 6.65904V14.7321M13.2574 3V4.27776M15.7921 3V7.82063M15.7921 10.7827V14.7321M18.4059 3V9.21455M18.4059 12.2347V14.7321M20.9802 3V6.25248M20.9802 9.21455V14.7321M23.5545 3V10.7827M23.5545 13.0478V14.7321M26.0891 3V4.27776M26.0891 6.25248V14.7321M28.7426 3V6.25248M28.7426 8.80799V14.7321M31.3168 3V4.91664M31.3168 6.65904V14.7321M27.8713 22.4464H26.1287M24.5446 22.4464H22.7228M22.7228 36.308H27.8713M14.0495 28.6741H27.8713M14.0495 32.0893H27.8713M31.7166 23.522C31.152 23.9467 30.3549 23.8266 29.9362 23.2538C29.5176 22.681 29.6359 21.8723 30.2005 21.4476C30.7652 21.0229 31.5623 21.1429 31.9809 21.7157C32.3996 22.2886 32.2812 23.0972 31.7166 23.522Z" stroke="#FF0000"/>
</svg>
